<svg width="49" height="21" viewBox="0 0 49 21" fill="none" xmlns="http://www.w3.org/2000/svg">
<path d="M23.52 2.62217V21H43.0309C47.1514 20.7061 49 18.1292 49 14.9645C49 11.6189 46.5055 8.92896 43.1645 8.92896C42.3182 8.92896 41.6055 9.1098 40.8705 9.42626C40.3359 4.13671 35.9036 0 30.4468 0C27.8409 0 25.3686 0.994617 23.52 2.62217ZM21.56 4.92788C20.8918 4.52099 20.1791 4.20452 19.3995 4.04629V21H22.4955V3.68461C22.1614 4.04629 21.8495 4.49839 21.56 4.92788ZM16.3259 3.70721V21H18.375V3.77503C17.9518 3.70721 17.5286 3.68461 17.0832 3.68461C16.8159 3.68461 16.5709 3.68461 16.3259 3.70721ZM12.25 5.17653V21H14.2768V4.13671C13.5418 4.38536 12.8514 4.74704 12.25 5.17653ZM8.53045 10.8278C8.39682 10.8278 8.26318 10.6921 8.10727 10.6243V21H10.1564V7.12056C9.33227 8.2056 8.77545 9.49408 8.53045 10.8278ZM3.98682 10.1948V20.7966C4.45455 20.9322 4.98909 21 5.56818 21H6.05818V10.014C5.88 9.99139 5.70182 9.96878 5.56818 9.96878C4.98909 9.96878 4.45455 10.0592 3.98682 10.1948ZM0 15.4844C0 17.1798 0.757273 18.6717 1.93773 19.6889V11.3025C0.757273 12.2971 0 13.8116 0 15.4844Z" fill="white"/>
</svg>
