<svg width="45" height="44" viewBox="0 0 45 44" fill="none" xmlns="http://www.w3.org/2000/svg">
<path d="M35.775 19.58C28.575 15.4 16.5375 14.96 9.675 17.05C8.55 17.38 7.425 16.72 7.0875 15.73C6.75 14.63 7.425 13.53 8.4375 13.2C16.425 10.89 29.5875 11.33 37.9125 16.17C38.925 16.72 39.2625 18.04 38.7 19.03C38.1375 19.8 36.7875 20.13 35.775 19.58ZM35.55 25.74C34.9875 26.51 33.975 26.84 33.1875 26.29C27.1125 22.66 17.8875 21.56 10.8 23.76C9.9 23.98 8.8875 23.54 8.6625 22.66C8.4375 21.78 8.8875 20.79 9.7875 20.57C18 18.15 28.125 19.36 35.1 23.54C35.775 23.87 36.1125 24.97 35.55 25.74ZM32.85 31.79C32.4 32.45 31.6125 32.67 30.9375 32.23C25.65 29.04 19.0125 28.38 11.1375 30.14C10.35 30.36 9.675 29.81 9.45 29.15C9.225 28.38 9.7875 27.72 10.4625 27.5C19.0125 25.63 26.4375 26.4 32.2875 29.92C33.075 30.25 33.1875 31.13 32.85 31.79ZM22.5 0C19.5453 0 16.6194 0.569047 13.8896 1.67465C11.1598 2.78025 8.67942 4.40076 6.5901 6.44365C2.37053 10.5695 0 16.1652 0 22C0 27.8348 2.37053 33.4305 6.5901 37.5564C8.67942 39.5992 11.1598 41.2197 13.8896 42.3254C16.6194 43.431 19.5453 44 22.5 44C28.4674 44 34.1903 41.6822 38.4099 37.5564C42.6295 33.4305 45 27.8348 45 22C45 19.1109 44.418 16.2501 43.2873 13.581C42.1566 10.9118 40.4992 8.48654 38.4099 6.44365C36.3206 4.40076 33.8402 2.78025 31.1104 1.67465C28.3806 0.569047 25.4547 0 22.5 0Z" fill="white"/>
</svg>
