<svg width="44" height="30" viewBox="0 0 44 30" fill="none" xmlns="http://www.w3.org/2000/svg">
<path d="M17.6 21.4286L29.018 15L17.6 8.57143V21.4286ZM43.032 4.65C43.318 5.65714 43.516 7.00714 43.648 8.72143C43.802 10.4357 43.868 11.9143 43.868 13.2L44 15C44 19.6929 43.648 23.1429 43.032 25.35C42.482 27.2786 41.206 28.5214 39.226 29.0571C38.192 29.3357 36.3 29.5286 33.396 29.6571C30.536 29.8071 27.918 29.8714 25.498 29.8714L22 30C12.782 30 7.04 29.6571 4.774 29.0571C2.794 28.5214 1.518 27.2786 0.968 25.35C0.682 24.3429 0.484 22.9929 0.352 21.2786C0.198 19.5643 0.132 18.0857 0.132 16.8L0 15C0 10.3071 0.352 6.85714 0.968 4.65C1.518 2.72143 2.794 1.47857 4.774 0.942857C5.808 0.664286 7.7 0.471428 10.604 0.342857C13.464 0.192857 16.082 0.128571 18.502 0.128571L22 0C31.218 0 36.96 0.342857 39.226 0.942857C41.206 1.47857 42.482 2.72143 43.032 4.65Z" fill="white"/>
</svg>
